<svg width="101" height="100" viewBox="0 0 101 100" fill="none" xmlns="http://www.w3.org/2000/svg">
<path d="M12.8799 0.5H88.8799C95.2312 0.5 100.38 5.64873 100.38 12V88C100.38 94.3513 95.2312 99.5 88.8799 99.5H12.8799C6.52861 99.5 1.37988 94.3513 1.37988 88V12C1.37988 5.64873 6.52861 0.5 12.8799 0.5Z" fill="#EF4343"/>
<path d="M12.8799 0.5H88.8799C95.2312 0.5 100.38 5.64873 100.38 12V88C100.38 94.3513 95.2312 99.5 88.8799 99.5H12.8799C6.52861 99.5 1.37988 94.3513 1.37988 88V12C1.37988 5.64873 6.52861 0.5 12.8799 0.5Z" stroke="#C3CBD9"/>
<path d="M30.8799 37L44.7059 44.8492C49.7572 47.7169 52.0026 47.7169 57.0538 44.8492L70.8799 37" stroke="white" stroke-width="3" stroke-linejoin="round"/>
<path d="M49.8799 66C49.8799 66 47.018 65.9756 45.0775 65.9269C38.7805 65.7687 35.6321 65.6896 33.3698 63.4187C31.1075 61.1478 31.0422 58.0823 30.9114 51.9512C30.8694 49.9799 30.8694 48.0201 30.9114 46.0488C31.0422 39.9177 31.1075 36.8522 33.3698 34.5813C35.632 32.3104 38.7805 32.2313 45.0775 32.0731C48.9585 31.9756 52.8013 31.9756 56.6822 32.0731C62.9792 32.2314 66.1277 32.3105 68.39 34.5813C70.6522 36.8522 70.7176 39.9177 70.8484 46.0488C70.8636 46.7625 70.8733 47.9989 70.8775 49" stroke="white" stroke-width="3" stroke-linecap="round" stroke-linejoin="round"/>
<path d="M54.8799 60H70.8799M62.8799 68L62.8799 52" stroke="white" stroke-width="3" stroke-linecap="round" stroke-linejoin="round"/>
</svg>
